<svg width="252" height="84" fill="none" xmlns="http://www.w3.org/2000/svg">
  <path fill-rule="evenodd" clip-rule="evenodd" d="M42 8.4 4.4 45.9l2.2 2.2 7.4-7.5V78h-4v3h65v-3h-5V40.6l7.4 7.5 2.2-2.2-9.6-9.5V9H56v13.4l-14-14Zm17 17 8 8V12h-8v13.4Zm8 12.2-25-25-25 25V78h50V37.6ZM34 50v24h16V50H34Zm3 21V53h10v18H37ZM21 50h3v4h-3v-4Zm9 0h-3v4h3v-4Zm-9 6h3v4h-3v-4Zm9 0h-3v4h3v-4Zm24-6h3v4h-3v-4Zm9 0h-3v4h3v-4Zm-9 6h3v4h-3v-4Zm9 0h-3v4h3v-4ZM37 36a5 5 0 1 1 10 0 5 5 0 0 1-10 0Zm5-8a8 8 0 1 0 0 16 8 8 0 0 0 0-16Z" fill="#000"/>
  <path d="M158.9 57.7H93.1A4.2 4.2 0 0 0 89 62v3.5c0 2.4 1.9 4.3 4.1 4.3h.9v1.1a10 10 0 0 0 9.6 10.1h44.6c5.3 0 9.6-4.5 9.6-10.1v-1.1h.9c2.3 0 4.1-1.9 4.1-4.3V62a4 4 0 0 0-3.9-4.3ZM155 70.9c0 3.9-3 7-6.7 7h-44.7a6.9 6.9 0 0 1-6.7-7v-1.1H155v1.1Zm5.1-5.4c0 .7-.6 1.3-1.2 1.3H93c-.7 0-1.2-.6-1.2-1.3V62c0-.7.6-1.3 1.2-1.3h65.8c.7 0 1.2.6 1.2 1.3l.1 3.5ZM104.6 49.4l5.4 4.1 5.3-4.1 5.3 4.1 5.3-4.1 5.4 4.1 5.3-4.1 5.3 4.1 5.4-4.1 5.3 4.1 6.2-4.7-1.7-2.5-4.5 3.4-5.3-4.1-5.4 4.1-5.3-4.1-5.3 4.1-5.4-4.1-5.3 4.1-5.3-4.1-5.3 4.1-5.4-4.1-5.3 4.1-4.5-3.4-1.7 2.5 6.2 4.7 5.3-4.1ZM97 42.5h60.8l.1-1.9v-1.2C157.2 23.7 143.2 11 126 11c-17.3 0-31.3 12.7-32 28.5v1.2l.1 1.9H97v-.1ZM126 14c15.6 0 28.4 11.3 29 25.5H97c.6-14.1 13.4-25.5 29-25.5Z" fill="#000"/>
  <path d="M126 28.3a2 2 0 0 0 1.9-2 2 2 0 0 0-1.9-2 2 2 0 0 0-1.9 2c0 1.1.9 2 1.9 2ZM118.2 23.2a2 2 0 0 0 1.9-2 2 2 0 0 0-1.9-2 2 2 0 0 0-1.9 2c0 1.1.9 2 1.9 2ZM133.7 23.2a2 2 0 0 0 1.9-2 2 2 0 0 0-1.9-2 2 2 0 0 0-1.9 2c0 1.1.9 2 1.9 2ZM239.1 27.5h-24.8c13.8-6.9 14.9-11.3 14.4-13.7-1.2-4-5.7-7-10-5.4-5.6 2.1-7.1 10.4-8.6 16.4-2-6.1-3.8-13.8-8.2-17.7a7.3 7.3 0 0 0-5.8-2c-4 .4-9.8 5.4-7.5 11 2.3 5.4 9.7 8.8 14.6 11.5h-22.3a2.9 2.9 0 0 0-2.9 2.9v11.3c0 1.6 1.3 2.9 2.9 2.9h.3V81H239V44.6h.1c1.6 0 2.9-1.3 2.9-2.9V30.4c0-1.6-1.3-2.9-2.9-2.9Zm-18.7-16.6c2.1-.3 5 1.3 5.3 3.2.4 2.8-3.4 5.3-5.1 6.4-2.5 1.7-4.9 2.6-7.3 4.1.9-3.7 2.5-13 7.1-13.7Zm-22.9 10c-2.2-1.5-6.5-4.4-6.4-7.8.1-3.6 5.7-6.6 8.8-3.9 3.9 3.4 5.7 11.1 7.1 16.6-3.2-1.5-6.3-2.8-9.5-4.9Zm6 57.1h-19.4V44.6h19.4V78Zm0-36.5H181v-11h22.5v11Zm10.2 0V78h-7.2V30.6h7.2v10.9ZM236 78h-19.4V44.6H236V78Zm2.9-36.5h-22.3v-11h22.3v11Z" fill="#000"/>
</svg>
