<svg width="380" height="20" fill="none" xmlns="http://www.w3.org/2000/svg">
  <path d="M47.8 12c.3 0 .5-.2.5-.5s-.3-.5-.5-.5c-.3 0-.5.2-.5.5s.2.5.5.5Z" fill="#000"/>
  <path d="M57 4h-2V2h-1v2h-8V2h-1v2h-2c-.6 0-1 .4-1 1v11c0 .5.4 1 1 1h14c.5 0 1-.5 1-1V5c0-.6-.5-1-1-1Zm0 12H43V9h14v7ZM43 8V5h2v2h1V5h8v2h1V5h2v3H43Z" fill="#000"/>
  <path d="M50 12c.3 0 .5-.2.5-.5s-.2-.5-.5-.5-.5.2-.5.5.2.5.5.5ZM52.3 12c.3 0 .5-.2.5-.5s-.3-.5-.5-.5c-.3 0-.5.2-.5.5s.2.5.5.5ZM47.8 13c-.3 0-.5.2-.5.5s.2.5.5.5.5-.2.5-.5-.3-.5-.5-.5ZM45.5 12c.3 0 .5-.2.5-.5s-.2-.5-.5-.5-.5.2-.5.5.2.5.5.5ZM45.5 13c-.3 0-.5.2-.5.5s.2.5.5.5.5-.2.5-.5-.2-.5-.5-.5ZM50 13c-.3 0-.5.2-.5.5s.2.5.5.5.5-.2.5-.5-.2-.5-.5-.5ZM52.3 13c-.3 0-.5.2-.5.5s.2.5.5.5.5-.2.5-.5-.3-.5-.5-.5ZM54.5 12c.3 0 .5-.2.5-.5s-.2-.5-.5-.5-.5.2-.5.5.2.5.5.5ZM54.5 13c-.3 0-.5.2-.5.5s.2.5.5.5.5-.2.5-.5-.2-.5-.5-.5ZM117.3 4.3h-14.7c-.3 0-.6.2-.6.5s.3.6.6.6h1.7v12c0 .3.3.6.6.6h10.2c.3 0 .6-.3.6-.6v-12h1.7c.3 0 .6-.3.6-.6s-.4-.5-.7-.5Zm-2.8 12.5h-9.1V5.4h9.1v11.4ZM108.2 3.2h3.4c.3 0 .6-.3.6-.6s-.2-.6-.5-.6h-3.5c-.3 0-.5.3-.5.6s.2.6.5.6Z" fill="#000"/>
  <path d="M108.2 14c.3 0 .6-.3.6-.6V7.7c0-.3-.3-.6-.6-.6s-.6.3-.6.6v5.7c.1.3.3.6.6.6ZM111.7 14c.3 0 .6-.3.6-.6V7.7c0-.3-.3-.6-.6-.6s-.6.4-.6.6v5.7c0 .3.2.6.6.6Z" fill="#000"/>
  <path fill-rule="evenodd" clip-rule="evenodd" d="M144.2 7.3c.3-.2.8-.2 1 0l4.8 4.8 4.7-4.8a.7.7 0 1 1 1 1.1l-5.2 5.3c-.3.2-.7.2-1 0l-5.3-5.3a.7.7 0 0 1 0-1Z" fill="#000"/>
  <path d="M89.9 19a1 1 0 0 1-.8-.4l-7-7.9A5.4 5.4 0 0 1 86.5 2c1.3 0 2.5.5 3.5 1.3a5.5 5.5 0 0 1 9 4.1c0 1.3-.5 2.5-1.3 3.4l-7 7.9c-.2.2-.4.3-.8.3Zm-6-9.5 6.1 6.9 6.2-7c.5-.5.7-1.2.7-2 0-1.8-1.5-3.3-3.3-3.3-1 0-2 .5-2.7 1.3-.3.3-.6.4-.9.4-.3 0-.6-.2-.8-.4a3.7 3.7 0 0 0-2.7-1.3 3.3 3.3 0 0 0-3.3 3.3c-.1.9.3 1.6.7 2.1-.1 0-.1 0 0 0ZM170 3l-6 5.8V15h12V8.8L170 3Zm5 11h-10V9.2l5-4.8 5 4.8V14Z" fill="#000"/>
  <path d="M168 13h1v-2.5h2V13h1V9.5h-4V13Z" fill="#000"/>
  <path fill-rule="evenodd" clip-rule="evenodd" d="M209 4h2v2h-2V4Zm2 12h-2V7h2v9Z" fill="#000"/>
  <path d="M23 9v2h14V9H23ZM137 4.3 135.7 3 130 8.7 124.3 3 123 4.3l5.7 5.7-5.7 5.7 1.3 1.3 5.7-5.7 5.7 5.7 1.3-1.3-5.7-5.7 5.7-5.7ZM17 9h-6V3H9v6H3v2h6v6h2v-6h6V9ZM79.5 18l-3.7-3.7a8 8 0 0 0 1.7-4.8 8 8 0 1 0-3.1 6.3l3.7 3.7 1.4-1.5Zm-10-2.5a6 6 0 0 1-6-6 6 6 0 0 1 12 0 6 6 0 0 1-6 6ZM190 1l2.1 6.5h6.9l-5.6 4 2.2 6.5-5.6-4-5.6 4 2.2-6.5-5.6-4h6.9L190 1ZM255 5l-6.5 7.4-3.4-3.9-1.1 1.2 4.5 5.2 7.7-8.6L255 5ZM225 10a5 5 0 1 1 10 0 5 5 0 0 1-10 0ZM264 3h-2v2h2V3ZM278 3h-12v2h12V3ZM264 7h-2v2h2V7ZM278 7h-12v2h12V7ZM264 11h-2v2h2v-2ZM278 11h-12v2h12v-2ZM264 15h-2v2h2v-2ZM278 15h-12v2h12v-2ZM298 15h-16v2h16v-2ZM296 5v6h-12V5h12Zm2-2h-16v10h16V3ZM306 3h-4v6h4V3ZM318 3h-4v6h4V3ZM312 3h-4v6h4V3ZM306 11h-4v6h4v-6ZM318 11h-4v6h4v-6ZM312 11h-4v6h4v-6Z" fill="#000"/>
  <path d="M332 1a4 4 0 0 0-4 4v2h-3v4h3v8h4v-8h3V7h-3V5h3V1h-3ZM352.6 2.2c1.8-.5 3.2.3 3.8 1.2l2.1-.7c0 .9-.6 1.5-.9 1.8.7 0 1.4-.6 1.4-.6a3 3 0 0 1-1.7 2c-.2 6.8-3.3 11.2-10.6 11h-.5c-.4 0-4.4-.4-5.2-1.8 2.4.2 4.1-.4 5-1.2-1-.3-2.9-.4-3.2-3 .4.2.6.3 1.3.2-1.3-.8-2.7-1.6-2.6-3.8.3.3 1.1.5 1.4.5-.8-.2-2.1-3.3-1-5a11 11 0 0 0 7.6 3.9c.2-2.4 1.2-4 3.1-4.5Z" fill="#83B3D3"/>
  <path fill-rule="evenodd" clip-rule="evenodd" d="M377.8 3.4c.9.2 1.6 1 1.8 1.8.4 1.5.4 4.8.4 4.8s0 3.3-.4 4.8c-.2.9-1 1.6-1.8 1.8-1.5.4-7.8.4-7.8.4s-6.3 0-7.8-.4c-.9-.2-1.6-1-1.8-1.8-.4-1.5-.4-4.8-.4-4.8s0-3.3.4-4.8c.2-.9 1-1.6 1.8-1.8C363.7 3 370 3 370 3s6.3 0 7.8.4Zm-4.6 6.6-5.2 3V7l5.2 3Z" fill="#83B3D3"/>
</svg>
